<svg width="12" height="8" viewBox="0 0 12 8" fill="none" xmlns="http://www.w3.org/2000/svg">
<path d="M6.86666 7.51666C6.73333 7.38333 6.66933 7.22221 6.67466 7.03332C6.67999 6.84444 6.74955 6.68333 6.88333 6.54999L8.76666 4.66666H1.33333C1.14444 4.66666 0.985992 4.60266 0.857992 4.47466C0.729992 4.34666 0.666214 4.18844 0.666659 3.99999C0.666659 3.8111 0.730659 3.65266 0.858659 3.52466C0.986659 3.39666 1.14488 3.33288 1.33333 3.33333H8.76666L6.86666 1.43332C6.73333 1.29999 6.66666 1.14155 6.66666 0.957992C6.66666 0.774436 6.73333 0.616214 6.86666 0.483325C6.99999 0.349992 7.15844 0.283325 7.34199 0.283325C7.52555 0.283325 7.68377 0.349992 7.81666 0.483325L10.8667 3.53333C10.9333 3.59999 10.9807 3.67221 11.0087 3.74999C11.0367 3.82777 11.0504 3.9111 11.05 3.99999C11.05 4.08888 11.036 4.17221 11.008 4.24999C10.98 4.32777 10.9329 4.39999 10.8667 4.46666L7.79999 7.53332C7.67777 7.65555 7.5251 7.71666 7.34199 7.71666C7.15888 7.71666 7.00044 7.64999 6.86666 7.51666Z" fill="#F7F5F7"/>
</svg>
